<svg xmlns="http://www.w3.org/2000/svg" width="1100" height="720" viewBox="0 0 1100 720">
  <defs>
    <style>
      .hand { font-family: "Comic Sans MS", "Segoe Print", "Bradley Hand ITC", cursive; fill: #1f2937; }
      .label { font-size: 27px; font-weight: 700; }
      .mid { font-size: 21px; }
      .small { font-size: 17px; fill: #475569; }
      .group { fill: none; stroke: #404040; stroke-width: 2.5; stroke-dasharray: 12 9; stroke-linecap: round; }
      .box { fill: #ffffff; stroke: #525252; stroke-width: 2.3; stroke-dasharray: 10 8; stroke-linecap: round; }
      .line { fill: none; stroke: #525252; stroke-width: 2.6; stroke-linecap: round; stroke-linejoin: round; marker-end: url(#arrow); }
      .thin { fill: none; stroke: #737373; stroke-width: 2.2; stroke-linecap: round; marker-end: url(#arrow); }
      .note { fill: #ffffff; stroke: #e5e7eb; stroke-width: 1.5; }
      .blue { stroke: #6ea8fe; fill: none; stroke-width: 5; stroke-linecap: round; stroke-linejoin: round; }
      .green { stroke: #34d399; fill: none; stroke-width: 5; stroke-linecap: round; stroke-linejoin: round; }
      .red { stroke: #fb7185; fill: none; stroke-width: 5; stroke-linecap: round; stroke-linejoin: round; }
      .purple { stroke: #a78bfa; fill: none; stroke-width: 5; stroke-linecap: round; stroke-linejoin: round; }
    </style>
    <marker id="arrow" markerWidth="10" markerHeight="10" refX="8" refY="3" orient="auto">
      <path d="M0,0 L0,6 L9,3 z" fill="#525252"/>
    </marker>
  </defs>

  <rect width="1100" height="720" fill="#ffffff"/>

  <text x="52" y="102" class="hand label">Client</text>
  <circle cx="78" cy="50" r="15" class="red"/>
  <path d="M48 96 C50 75 66 68 84 72" class="red"/>
  <path d="M90 72 C112 70 128 80 130 100" class="red"/>
  <path d="M148 87 C220 87 268 87 330 87" class="line"/>
  <text x="168" y="72" class="hand small">예매 진입</text>
  <text x="160" y="116" class="hand small">새로고침 / 재접속 / 중복 요청</text>

  <rect x="350" y="32" width="650" height="190" rx="46" class="group"/>
  <text x="610" y="58" class="hand small">L1 User Access</text>

  <rect x="440" y="94" width="170" height="82" rx="22" class="box"/>
  <rect x="500" y="80" width="42" height="30" rx="4" class="blue"/>
  <text x="452" y="142" class="hand label">Ticket Page</text>
  <text x="458" y="168" class="hand small">Web UI</text>

  <path d="M622 136 C690 136 734 136 792 136" class="line"/>
  <rect x="672" y="118" width="70" height="29" rx="5" class="note"/>
  <text x="680" y="139" class="hand small">HTTP</text>

  <rect x="805" y="92" width="150" height="86" rx="22" class="box"/>
  <path d="M865 76 h38 m-19 -19 v38 m-32 -8 h64" class="green"/>
  <text x="823" y="143" class="hand label">Queue API</text>
  <text x="825" y="169" class="hand small">Spring Boot</text>

  <path d="M884 180 C884 248 770 255 770 312" class="line"/>
  <text x="790" y="260" class="hand small">join / status</text>

  <rect x="110" y="282" width="780" height="210" rx="34" class="group"/>
  <text x="132" y="304" class="hand small">L2 Queue Control</text>

  <rect x="165" y="345" width="185" height="98" rx="24" class="box"/>
  <path d="M218 363 h26 v26 h-26 z M236 381 h26 v26 h-26 z" class="blue"/>
  <text x="185" y="415" class="hand label">Queue Service</text>
  <text x="178" y="440" class="hand small">State &amp; Flow Controller</text>

  <path d="M365 394 C425 394 457 394 512 394" class="line"/>
  <rect x="410" y="374" width="78" height="31" rx="5" class="note"/>
  <text x="418" y="397" class="hand small">token</text>

  <rect x="525" y="340" width="190" height="108" rx="24" class="box"/>
  <path d="M600 356 h38 v38 h-38 z M610 367 h18 M610 380 h18" class="green"/>
  <text x="548" y="416" class="hand label">Token Manager</text>
  <text x="553" y="441" class="hand small">Waiting / Active / Expired</text>

  <path d="M724 394 C774 394 805 394 852 394" class="line"/>
  <rect x="760" y="374" width="68" height="31" rx="5" class="note"/>
  <text x="769" y="397" class="hand small">allow</text>

  <rect x="865" y="345" width="170" height="98" rx="24" class="box"/>
  <path d="M938 362 q30 18 0 36 q-30 -18 0 -36" class="purple"/>
  <text x="884" y="416" class="hand label">Ticket API</text>
  <text x="886" y="440" class="hand small">Active token only</text>

  <path d="M620 450 C620 490 620 515 620 548" class="line"/>
  <text x="640" y="508" class="hand small">state update</text>

  <rect x="170" y="552" width="610" height="122" rx="28" class="group"/>
  <text x="415" y="574" class="hand small">L3 State Store</text>

  <path d="M262 600 C262 584 330 584 330 600 L330 640 C330 656 262 656 262 640 Z" class="green"/>
  <path d="M262 600 C262 616 330 616 330 600" class="green"/>
  <text x="246" y="693" class="hand label">Redis</text>
  <text x="207" y="715" class="hand small">Queue / Active count / TTL</text>

  <path d="M595 600 C595 584 663 584 663 600 L663 640 C663 656 595 656 595 640 Z" class="blue"/>
  <path d="M595 600 C595 616 663 616 663 600" class="blue"/>
  <text x="585" y="693" class="hand label">MySQL</text>
  <text x="546" y="715" class="hand small">QueueToken / Reservation</text>

  <path d="M540 548 C470 535 376 526 300 552" class="thin"/>
  <path d="M668 548 C668 525 668 505 670 485" class="thin"/>
  <path d="M668 548 C668 565 668 578 668 593" class="line"/>

  <rect x="925" y="522" width="142" height="128" rx="24" class="box"/>
  <text x="948" y="552" class="hand label">Result</text>
  <text x="946" y="584" class="hand mid">Waiting</text>
  <text x="946" y="612" class="hand mid">Active</text>
  <text x="946" y="640" class="hand mid">Expired</text>
  <path d="M954 443 C1002 468 1026 490 1030 522" class="line"/>
  <text x="928" y="488" class="hand small">state response</text>

  <rect x="920" y="250" width="150" height="92" rx="22" class="box"/>
  <text x="940" y="284" class="hand label">Heartbeat</text>
  <text x="935" y="314" class="hand small">30초 미응답</text>
  <text x="935" y="334" class="hand small">토큰 만료</text>
  <path d="M920 320 C850 358 790 450 705 552" class="thin"/>

  <rect x="70" y="542" width="120" height="92" rx="22" class="box"/>
  <text x="95" y="576" class="hand label">k6</text>
  <text x="84" y="606" class="hand small">131,874 req</text>
  <text x="84" y="626" class="hand small">100% success</text>
  <path d="M190 586 C270 510 226 470 260 443" class="thin"/>

  <path d="M130 150 C185 220 252 253 350 330" class="thin"/>
  <text x="132" y="210" class="hand small">status polling</text>
</svg>
